name C:\Users\u0101727\Documents\MyRepositories\3dpredictsim_mobilecap/Results/TrackSim_mtp/IK_c33_99.mot																																																																																																																															
datacolumns 128																																																																																																																															
datarows 5																																																																																																																															
range 2.66 2.74																																																																																																																															
endheader																																																																																																																															
time	pelvis_tilt	pelvis_list	pelvis_rotation	pelvis_tx	pelvis_ty	pelvis_tz	hip_flexion_l	hip_adduction_l	hip_rotation_l	hip_flexion_r	hip_adduction_r	hip_rotation_r	knee_angle_l	knee_adduction_l	knee_angle_r	knee_adduction_r	ankle_angle_l	ankle_angle_r	subtalar_angle_l	subtalar_angle_r	mtp_angle_l	mtp_angle_r	lumbar_extension	lumbar_bending	lumbar_rotation	arm_flex_l	arm_add_l	arm_rot_l	arm_flex_r	arm_add_r	arm_rot_r	elbow_flex_l	elbow_flex_r	pro_sup_l	pro_sup_r	glut_med1_l/activation	glut_med2_l/activation	glut_med3_l/activation	glut_min1_l/activation	glut_min2_l/activation	glut_min3_l/activation	semimem_l/activation	semiten_l/activation	bifemlh_l/activation	bifemsh_l/activation	sar_l/activation	add_long_l/activation	add_brev_l/activation	add_mag1_l/activation	add_mag2_l/activation	add_mag3_l/activation	tfl_l/activation	pect_l/activation	grac_l/activation	glut_max1_l/activation	glut_max2_l/activation	glut_max3_l/activation	iliacus_l/activation	psoas_l/activation	quad_fem_l/activation	gem_l/activation	peri_l/activation	rect_fem_l/activation	vas_med_l/activation	vas_int_l/activation	vas_lat_l/activation	med_gas_l/activation	lat_gas_l/activation	soleus_l/activation	tib_post_l/activation	flex_dig_l/activation	flex_hal_l/activation	tib_ant_l/activation	per_brev_l/activation	per_long_l/activation	per_tert_l/activation	ext_dig_l/activation	ext_hal_l/activation	ercspn_l/activation	intobl_l/activation	extobl_l/activation	glut_med1_r/activation	glut_med2_r/activation	glut_med3_r/activation	glut_min1_r/activation	glut_min2_r/activation	glut_min3_r/activation	semimem_r/activation	semiten_r/activation	bifemlh_r/activation	bifemsh_r/activation	sar_r/activation	add_long_r/activation	add_brev_r/activation	add_mag1_r/activation	add_mag2_r/activation	add_mag3_r/activation	tfl_r/activation	pect_r/activation	grac_r/activation	glut_max1_r/activation	glut_max2_r/activation	glut_max3_r/activation	iliacus_r/activation	psoas_r/activation	quad_fem_r/activation	gem_r/activation	peri_r/activation	rect_fem_r/activation	vas_med_r/activation	vas_int_r/activation	vas_lat_r/activation	med_gas_r/activation	lat_gas_r/activation	soleus_r/activation	tib_post_r/activation	flex_dig_r/activation	flex_hal_r/activation	tib_ant_r/activation	per_brev_r/activation	per_long_r/activation	per_tert_r/activation	ext_dig_r/activation	ext_hal_r/activation	ercspn_r/activation	intobl_r/activation	extobl_r/activation
2.66	-4.56719656	-3.70711163	-2.28031768	-0.15831228	1.2253526	-0.60085765	14.8551332	-8.73901321	-6.04708685	11.67327625	-2.51252956	-2.56543852	-24.43281895	-2.43494268	-17.53681334	-3.297854	-23.91254242	-27.49910785	-5.11792726	5.18886955	-1.18341628	-1.8925186	-10.89717398	6.24239365	0.81773681	86.37838511	-15.14215323	42.54515677	83.17412152	-9.26980656	24.71825621	88.61283915	65.1595332	115.1550291	138.694016	0.000099	0.03025941	0.05883003	0.00018737	0.00033742	0.00667706	0.16921971	0.07383578	0.12133014	0.30790491	0.08170713	0.0179494	0.03091868	0.04386851	0.04307228	0.0757948	0.01550654	0.01846707	0.04619644	0.04796694	0.1018846	0.11553915	0.21588909	0.21972696	0.13882416	0.06371946	0.02865155	0.32196779	0.25825405	0.21937872	0.29630218	0.47235804	0.27170522	0.66666158	0.10547097	0.078798	0.07867485	0.00002083	0.15811108	0.19687546	0.15051392	0.31427632	0.00093632	0.0441005	0.16978561	0.36483443	0.00004169	0.00028408	0.06131539	0.00008183	0.00011268	0.0002766	0.12132081	0.08618479	0.13881733	0.22636604	0.04163738	0.17568907	0.09732691	0.06741961	0.05105674	0.07083275	0.00012511	0.04358993	0.08350168	0.04650092	0.10108988	0.12854847	0.19703626	0.20143673	0.22678573	0.08233474	0.06046769	0.28154349	0.29850587	0.31869439	0.35557022	0.5644268	0.39123902	0.26404534	0.12360554	0.03325872	0.13380397	0.00008907	0.08060024	0.28639261	0.10799635	0.33145712	0.03023263	0.06533935	0.17657526	0.24763106
2.68	-3.3350743	-4.10405898	-3.11858242	-0.1428802	1.27438525	-0.60114298	8.86224144	-9.74331876	-5.01220963	5.18039652	-2.89873224	-1.03336174	-16.49474987	-0.11150496	-8.05312302	-0.73366086	-35.65426211	-34.98077172	-7.08428909	5.08167216	-0.68400121	0.25598482	-10.53850395	6.93583243	1.76625988	74.38190876	-14.86653372	38.81918445	72.66750741	-8.16282311	18.60945674	90.19278705	62.17431171	117.0595054	140.1475718	0.00007765	0.02018274	0.03925371	0.00016419	0.00028641	0.00453505	0.11350858	0.07970817	0.0812172	0.36496995	0.08849394	0.0505367	0.02062987	0.02926005	0.02872419	0.05053371	0.01841036	0.02265423	0.05068371	0.03199733	0.06793088	0.07703043	0.32200515	0.31404692	0.09270842	0.04305451	0.01944765	0.2146462	0.1721715	0.14625449	0.19753644	0.31491111	0.18114359	0.44444294	0.07032035	0.05852028	0.05246321	0.06969313	0.10541369	0.1312618	0.1003528	0.2095229	0.01423191	0.02940131	0.28514303	0.43192284	0.00003727	0.00020019	0.04088397	0.00007919	0.00011194	0.00026461	0.08094929	0.05808046	0.09263673	0.20865973	0.03357763	0.21448752	0.09970451	0.05885102	0.03410556	0.04723068	0.00016139	0.05459819	0.07121251	0.03101869	0.06740133	0.08570645	0.2743208	0.27881592	0.21083294	0.05604961	0.04033322	0.18769723	0.19900691	0.21246564	0.23704929	0.3979796	0.26083621	0.17603331	0.0824059	0.02219765	0.0892332	0.26962442	0.05373934	0.19093524	0.07201982	0.22098261	0.04257835	0.04356035	0.21708753	0.42853418
2.7	-2.32396703	-4.19784813	-4.08084765	-0.13024432	1.31788314	-0.60057284	3.7534355	-10.09376229	-4.59785148	0.15855878	-3.30674057	-1.0788136	-9.63681675	1.17174953	-0.71397048	0.29797055	-40.57325727	-37.48029081	-6.71052831	5.83039003	0.07655216	0.5060527	-10.60429107	7.09937673	2.72491604	63.17015011	-14.14600373	34.88048543	63.24224358	-6.8445077	11.67612888	90.15616849	58.36310534	118.1302172	140.3667447	0.0000616	0.01346793	0.04226662	0.00014041	0.00024705	0.0032155	0.09283355	0.05331919	0.08999436	0.24337897	0.0608398	0.03393273	0.01377885	0.01953121	0.01916226	0.03369381	0.01239514	0.01898765	0.03609046	0.02136289	0.04529982	0.05135987	0.21472662	0.20947088	0.20385764	0.07716108	0.03378031	0.14309992	0.11478394	0.09750563	0.13169332	0.20994714	0.12077958	0.29629818	0.06192778	0.03902306	0.03502001	0.04646344	0.07048747	0.13047393	0.06691097	0.13968413	0.00949853	0.01960196	0.2066119	0.48638886	0.00003588	0.00014539	0.02726138	0.00008538	0.00011612	0.00024452	0.09024583	0.07379266	0.06203767	0.13937897	0.0225495	0.23162839	0.1153922	0.07205476	0.02344265	0.03150123	0.00017931	0.05217672	0.07076591	0.02070387	0.04494502	0.05714637	0.19729607	0.21563568	0.14057695	0.03742034	0.02690663	0.12513359	0.13267576	0.1416478	0.15803656	0.26532246	0.17389532	0.11736096	0.07978037	0.01481545	0.05949649	0.17975082	0.09069485	0.16956563	0.04806894	0.14732629	0.02840027	0.02904098	0.14483259	0.28571088
2.72	-1.3634759	-4.25739077	-5.28134074	-0.12245464	1.35655626	-0.59937427	0.3628113	-10.11817855	-4.87227506	-2.69073843	-3.44249489	-1.68671492	-5.84065793	1.36862014	2.74634381	0.8299522	-43.12776696	-40.14893684	-6.25044462	5.90530751	0.01962415	0.2619936	-11.62322324	7.02819133	3.91793605	53.4408208	-13.12973687	30.82918416	55.74563457	-5.71424179	5.20457606	88.37690721	53.77637079	118.3058597	139.1150226	0.00005067	0.00899383	0.07174889	0.000131	0.00022964	0.0025222	0.07806842	0.05273793	0.06064743	0.2120172	0.05636421	0.03997786	0.00922273	0.01305495	0.0127913	0.02246786	0.00842784	0.01954433	0.03843677	0.01428618	0.03021744	0.03424707	0.19953668	0.22239812	0.13601906	0.05158314	0.02475088	0.09540142	0.07652625	0.06500686	0.08779842	0.15681094	0.10188785	0.19753738	0.04129513	0.03699796	0.02351164	0.03097706	0.04724058	0.09415449	0.04461879	0.09312564	0.00634309	0.01306925	0.24463057	0.39969692	0.00004074	0.00011074	0.01817818	0.00011843	0.00014789	0.00023024	0.06042086	0.05162046	0.04138947	0.11527262	0.01521664	0.18687689	0.09174575	0.04873179	0.01863585	0.0210204	0.00024495	0.03995878	0.04952633	0.01383336	0.02997637	0.03810572	0.1989662	0.21593434	0.09372644	0.0249706	0.01794909	0.08342467	0.08845678	0.09443741	0.10536282	0.17688897	0.11593993	0.07824798	0.05319163	0.00994812	0.03968704	0.11984081	0.06047141	0.1130476	0.03207192	0.09822537	0.01896767	0.01936147	0.1761934	0.24955198
2.74	-0.75563187	-4.11470979	-6.15855174	-0.11885287	1.3903966	-0.59836495	-0.92397173	-9.82718032	-5.60578693	-3.46924195	-3.69903263	-2.96710298	-5.09437502	1.24815646	2.81785787	1.33820588	-42.73624923	-40.35005981	-5.62880049	6.08279845	0.34122708	0.39832872	-13.0131191	6.60006782	4.58554408	45.12823685	-12.12873745	26.62414876	49.82008898	-4.90638204	-0.23426152	85.15754885	48.68275294	117.872702	136.8659895	0.0000479	0.0060177	0.04935103	0.00014431	0.00025158	0.00235624	0.05761747	0.03575121	0.0410495	0.14940032	0.03813294	0.02679433	0.00619214	0.00874456	0.00854904	0.01498535	0.00574275	0.01377771	0.02645104	0.0095906	0.02016962	0.02284007	0.13309522	0.14832314	0.09074528	0.03448254	0.01701164	0.0636035	0.05102191	0.04334157	0.05853575	0.10685525	0.07377638	0.13170051	0.02931578	0.02467728	0.01582354	0.02065316	0.04205986	0.08980468	0.02976376	0.06208812	0.00424267	0.00871441	0.16501352	0.31207666	0.00013914	0.00008919	0.01212181	0.00064469	0.00030827	0.00020813	0.04382866	0.03529839	0.0276117	0.08423303	0.0103011	0.12632932	0.06176523	0.03261997	0.01300962	0.01404683	0.0003929	0.02725693	0.03345449	0.00925835	0.01999901	0.02541117	0.15241184	0.15255022	0.06248993	0.01666458	0.01197461	0.05561937	0.05897981	0.06296569	0.07024885	0.11793012	0.07730013	0.05217268	0.04552209	0.00667679	0.02647816	0.10536789	0.04032774	0.09439432	0.02144128	0.06552066	0.01488284	0.0129086	0.11755787	0.22648306
